<?xml version="1.0" encoding="utf-8"?>
<svg version="1.1" id="Calque_1" xmlns="http://www.w3.org/2000/svg" xmlns:xlink="http://www.w3.org/1999/xlink" x="0px" y="0px"
	 width="205px" height="90px" viewBox="0 0 205 90" style="enable-background:new 0 0 205 90;" xml:space="preserve">
<g>
	<path style="fill:#AA182C;" d="M44.4,40.5l-4.3,11.3c3.5,0,7.1,1.2,9.5,3.8L44.4,40.5z M36.7,61.6c-0.4,1.1-0.8,2.2-0.8,3.3
		c0,1.5,1.2,2.4,2.6,2.5v0.4H29v-0.4c1.1-0.2,1.7-0.5,2.4-1.5c0.8-1.2,1.6-3,2.1-4.4l7.6-20c0.3-0.9,0.7-1.8,0.7-2.7
		c0-0.8-0.7-1.4-1.5-1.5v-0.4h10.4v0.4c-0.8,0.2-1.4,0.8-1.4,1.7c0,0.6,0.2,1.3,0.4,1.8l8,23.1c0.7,1.7,1,3,2.9,3.4v0.4H50.1v-0.4
		c1.7-0.4,2.3-1.6,2.3-3.3c0-4.3-5.4-9.9-12.9-10.1L36.7,61.6z"/>
	<path style="fill:#AA182C;" d="M70.3,59.6c0,4.1-0.1,6.1,4.8,6.1c7.4,0,11.5-4.6,11.5-11.9c0-7.8-4.6-14.7-12.8-14.7
		c-3.8,0-3.5,1.9-3.5,4.9V59.6z M73.3,36.9c4.9,0,9.3,0.8,13.2,4c3.6,3.1,5.8,7.7,5.8,12.5c0,4.2-1.7,8.5-5,11.2
		c-3.7,3.1-7.7,3.2-12.3,3.2H62.1v-0.4c3-0.5,3.1-2.9,3.1-5.4V43.1c0-2.6,0-5.3-3.1-5.7v-0.4H73.3z"/>
	<path style="fill:#AA182C;" d="M114.1,66c6.6,0,10-5.7,10-11.8c0-8.4-5.6-15.5-12.2-15.5c-6.7,0-9.8,6-9.8,12
		C102,57.8,106.2,66,114.1,66 M101.4,64.2c-3.1-3-5-7.4-5-11.7c0-9.4,7.3-16.2,16.6-16.2c9.5,0,16.8,6.8,16.8,16.5
		c0,9.2-7.9,15.7-16.7,15.7C108.7,68.5,104.6,67.1,101.4,64.2"/>
	<path style="fill:#AA182C;" d="M154.7,43.1c0-2.7,0-5.4-3.2-5.7v-0.4h9.3v0.4c-3,0.4-3.1,2.9-3.1,5.4v18.9c0,2.6,0,5.3,3.1,5.7v0.4
		h-9.3v-0.4c3.1-0.3,3.2-2.8,3.2-5.4v-1.9c0-1.1,0-3.2-0.2-4.2c-0.3-1.3-1.5-2-2.4-2.8l-14.9-12.4v21c0,2.7,0,5.5,3.1,5.7v0.4h-9.2
		v-0.4c3-0.4,3.1-2.9,3.1-5.4V43.1c0-2.6,0-5.3-3.1-5.7v-0.4h12.4v0.4c-1.6,0.1-1.2,1,0.5,2.4l10.7,8.9V43.1z"/>
	<path style="fill:#AA182C;" d="M172.6,61.7c0,2.6,0,5.3,3.1,5.7v0.4h-11.3v-0.4c3-0.4,3.1-2.8,3.1-5.4V43.1c0-2.6,0-5.3-3.1-5.7
		v-0.4h11.3v0.4c-3,0.5-3.1,2.9-3.1,5.5V61.7z"/>
	<path style="fill:#AA182C;" d="M201.7,45.9l-0.4,0.1c-1.5-4.3-5.9-7.2-10.4-7.2c-2.6,0-5.9,0.9-5.9,3.9c0,2.3,3.2,3,4.8,3.5l6.6,2
		c6.1,1.8,8.6,5.4,8.6,9.2c0,7.4-5,11.1-12.7,11.1c-3.9,0-6.9-1.5-9.1-1.5c-0.7,0-1.2,0.4-1.6,0.8l-2.7-11.8l0.4-0.1
		c1.7,5.5,6.1,9.8,12.1,9.8c6.1,0,8.9-2.4,8.9-6.5c0-4.1-3.7-5.2-6.9-6.2l-6.3-1.9c-3.7-1.1-6.8-2.8-6.8-7.1c0-5.5,5.4-7.9,9.6-7.9
		c3.6,0,5.4,1.2,8.2,1.2c0.8,0,1.2-0.3,1.7-0.8L201.7,45.9z"/>
	<path style="fill:#1E7498;" d="M23.7,36.2c0.5-0.5,0.7-1.1,0.5-1.1c-0.2,0-0.5-0.3-1.1,0.2c-0.5,0.5-1.3,1.5-1.9,2.2
		c-0.6,0.7-1.1,1-1.3,2.3c-0.3,1.3-0.9,8.1-1.1,10.1c-0.2,2.1-1.3,11.1-1.7,14.7c-0.4,3.6-1.5,15.2-1.9,15.9c-0.3,0.5-0.8,0.2-1,0
		c0,0,0.1,0,0.3-0.1c0.4-0.2,0.4-0.8,0.6-2.7c0.2-1.9,0.4-6.4,0.6-9c0.1-2.7,1.6-14.4,1.6-16.7c0-2,0.8-10.6,1-12.5
		c0-0.4,0.2-0.8,1-1.7c0.8-0.9,0.7-1.3,0.7-1.3h-1.7c0,0-0.2,0.6-0.5,1.3c-0.3,0.8-0.7,1.6-0.9,3.7c-0.2,2.1-1,11.6-1.1,13.1
		c-0.1,1.5-1,15.2-1.1,17.7c-0.1,2.5-0.1,3.4-0.3,3.1c-0.1-0.3,0-3.6,0-4.6c0-0.5,0-3.2,0-6.1c0-2.9,0-6,0.1-7
		c0.1-1.9,0.6-11.8,0.7-13.4c0.1-1.6,0.5-7.7,0.5-7.7h-2.1c0,0,0.3,27.3,0.4,28c0,0,0,0.1,0,0.1c0,0.5-0.3,0.5-0.3,0.3
		c0-0.2-0.5-5.9-0.6-8.1c0-0.1,0-0.3,0-0.4c0-1.8-0.4-18.1-0.4-18.1s-0.2-0.2-0.7-0.6c-0.5-0.4-0.5-1.3-0.5-1.3
		c-0.7,0-1.8-0.4-1.8-0.4s-0.2,0,0,0.6c0.1,0.6,1,1.1,1.3,1.4c0.3,0.3,0.2,0.6,0.3,2.2c0.1,1.3,0.8,11.9,1.1,16.6
		c0.1,1.3,0.1,2.2,0,2.2c-0.2,0-0.1,0.2-0.1-0.4c0-0.6-0.8-6.9-1-9.4c-0.2-2.4-1-9.4-1.2-10c-0.2-0.7-0.8-1-1.4-1.8
		c-0.6-0.8-0.6-1.8-0.6-1.8s-0.3-0.3-1-0.5c-0.7-0.3-1.3-0.7-1.3-0.7s-0.2,0.8,0.1,1.2c0.3,0.4,0.5,0.2,1.6,1.3
		c1.2,1.1,1.8,2.4,2.1,4.3C9.9,43.4,11.5,59,11.5,59c0.5,4.8,1.1,7.6,1.4,15.5c0.3,7.8,1.8,7.2,1.8,7.2c1.3,0,1.5-3.6,1.7-6
		c0.2-2.4,1.6-12.4,1.7-15.3c0.1-2.9,1.5-13.1,1.6-14.1c0.1-1,0.4-5.6,0.9-6.8C21.2,38.2,23.1,36.6,23.7,36.2 M14.8,35.5
		c11.8,0,12.9-6.5,12.9-6.5s-3.9,3.4-12.5,3.4c-8.1,0-13-3.5-13-3.5S3.4,35.5,14.8,35.5 M29.4,26.8c0,0-0.3,1.8-1.1,3.4
		c-0.8,1.5-1.8,2.9-2.8,3.9c0,0,0,1.5-0.5,2.3c-0.5,0.8-2.9,2.4-3.2,3c-0.3,0.6-0.8,4.3-1,6.8c-0.3,2.5-1.5,12.1-1.8,15.4
		c-0.3,3.2-1.3,10.6-1.6,13.8c0,0-0.4,3.9-0.6,5.3c-0.3,1.4-1.1,2-2.1,2c-1,0.1-1.7-0.5-2.1-2c-0.4-1.5-0.7-6.7-1-11.4
		c-0.3-4.7-1.1-9.7-1.5-13.7c0,0-1.2-13.1-1.6-15.1c-0.4-2-2-2.7-2.7-3.3c-0.7-0.6-1-0.8-1.2-1.6c-0.2-0.8-0.1-1.6-0.1-1.6
		s-2-1.5-3.1-4.2c-1.1-2.8-0.7-2.9-0.7-2.9s2.8,4.9,15,4.9C26.3,31.3,29.4,26.8,29.4,26.8"/>
	<path style="fill:#FFFFFF;" d="M27.7,29c0,0-1.1,6.5-12.9,6.5c-11.4,0-12.5-6.7-12.5-6.7s4.9,3.5,13,3.5C23.7,32.4,27.7,29,27.7,29
		"/>
	<path style="fill:#FFFFFF;" d="M24.2,35.1c0.2,0,0,0.6-0.5,1.1c-0.5,0.5-2.4,2-3,3.2c-0.5,1.3-0.8,5.8-0.9,6.8
		c-0.1,1-1.5,11.2-1.6,14.1c-0.1,2.9-1.5,12.9-1.7,15.3c-0.2,2.4-0.5,6-1.7,6c0,0-1.5,0.7-1.8-7.2c-0.3-7.8-1-10.7-1.4-15.5
		c0,0-1.6-15.7-1.9-17.6c-0.3-1.9-0.9-3.2-2.1-4.3c-1.2-1.1-1.4-0.9-1.6-1.3c-0.3-0.4-0.1-1.2-0.1-1.2s0.6,0.4,1.3,0.7
		c0.7,0.2,1,0.5,1,0.5s0,1,0.6,1.8c0.6,0.8,1.3,1.1,1.4,1.8c0.2,0.7,1,7.6,1.2,10c0.2,2.4,1,8.8,1,9.4c0,0.6-0.1,0.4,0.1,0.4
		c0,0,0-0.9,0-2.2l0.7,0c0.1,2.2,0.5,7.9,0.6,8.1c0,0.2,0.3,0.3,0.3-0.3h0.3c0,2.9,0,5.6,0,6.1c0,0.9-0.1,4.3,0,4.6
		c0.1,0.3,0.1-0.5,0.3-3.1c0.1-2.5,1.1-16.2,1.1-17.7c0.1-1.5,0.9-11,1.1-13.1c0.2-2.1,0.5-3,0.9-3.7c0.3-0.8,0.5-1.3,0.5-1.3h1.7
		c0,0,0.2,0.4-0.7,1.3c-0.8,0.8-1,1.3-1,1.7c-0.2,1.8-0.9,10.4-1,12.5c0,2.3-1.5,14-1.6,16.7c-0.1,2.7-0.3,7.1-0.6,9
		c-0.2,1.9-0.2,2.5-0.6,2.7c-0.2,0.1-0.3,0.1-0.3,0.1c0.1,0.1,0.7,0.5,1,0c0.3-0.6,1.4-12.3,1.9-15.9c0.4-3.6,1.5-12.7,1.7-14.7
		c0.2-2.1,0.8-8.8,1.1-10.1c0.2-1.3,0.8-1.6,1.3-2.3c0.6-0.7,1.3-1.6,1.9-2.2C23.6,34.7,24,35,24.2,35.1"/>
	<path style="fill:#FFFFFF;" d="M13.6,36.7h2.1c0,0-0.4,6.1-0.5,7.7c-0.1,1.6-0.6,11.5-0.7,13.4c-0.1,1-0.1,4-0.1,7H14
		c0,0,0-0.1,0-0.1C14,64,13.6,36.7,13.6,36.7"/>
	<path style="fill:#FFFFFF;" d="M13.1,56.9l-0.7,0c-0.2-4.7-1-15.3-1.1-16.6c-0.1-1.6,0-1.9-0.3-2.2c-0.3-0.3-1.1-0.8-1.3-1.4
		c-0.1-0.6,0-0.6,0-0.6s1.1,0.3,1.8,0.4c0,0,0,0.9,0.5,1.3c0.5,0.4,0.7,0.6,0.7,0.6s0.3,16.3,0.4,18.1
		C13.1,56.7,13.1,56.8,13.1,56.9"/>
	<path style="fill:#F8DC30;" d="M28,23.5c-0.2-0.8-0.4-2.6-0.4-2.6s-0.2,0.3-0.8,1.3c-0.6,1-0.6,1.7-0.6,1.7s-0.2,0.5-0.1-1
		c0.1-1.5,0-2-0.8-3c-0.5-0.6-0.9-0.6-1.1-3c-0.2-2.5-0.9-3.1-0.9-3.1c-0.4,2.5-1,1.9-1.1,3.8c-0.2,1.9,0.1,2.8,0.1,2.8
		c0.1,1.4-0.6,2-0.9,2.2c-0.1-0.7-0.7-3.5-0.6-3c0.3,2.2-1.1-3.3-1.1-3.3l-0.3,1.2c-0.3,1.2-0.8,2-0.8,2s0.2-0.8,0.2-2.1
		c0-1.3,0.1-1.8-1.3-4.4c-1.4-2.6-1.3-4.8-1.3-4.8c-0.8,1.3-1,1.2-2,3.1c-1,1.9-1,2.8-1,2.8c-0.3-0.4-0.3-1.6-0.3-1.6
		s-1.6,1.5-2.1,4.2c-0.4,2.7-0.3,3.9-0.3,3.9c-1.1-2.5-0.4-2.8-1.1-5.3c-0.8-2.5-1.9-4-1.9-4c-0.7,2.6-0.2,2.3-0.4,5.5
		c-0.2,3.2-0.5,2.8-1.1,4.1C5.3,22.3,5.4,23,5.4,23c-0.8-1.6-0.6-3.1-0.6-3.1S4.6,20,4.2,21.6c-0.4,1.6-0.4,2.7-0.4,2.7
		s0.2,0.4-0.3-0.5c-0.5-1-0.9-2.7-0.9-2.7S2.3,23,2.2,24c-0.1,0.9-0.3,2.5,1.1,3.8c0.5,0.5,1.3,1,1.9,0.4c0.6-0.5-0.1-0.8,0.4-2.5
		c0.3-1,2.1-3.2,2.1-3.2s0.1,0.8-0.3,2.3c-0.4,1.5-0.8,3.3,0.3,3.9c1.1,0.6,0.9,0.4,1.7-1.4c0.8-1.8,1.5-2.7,1.5-2.7
		s-0.3,0.5-0.5,2.5c-0.2,2,0,2.6,1.4,2.6c1.4,0,0.5-1.6,1.1-3c0.6-1.4,1.7-2.5,2.2-3.6c0.5-1.1-0.1-2.5-0.1-2.5
		c0.6,0.4,1.3,0.8,1.3,2.9c-0.1,2.2-1.3,3.5-1.5,4.5c-0.1,0.9,0.3,2.3,1.7,1.8c1.4-0.4,0.8-1.6,1.2-3c0.4-1.3,1.3-2.3,1.3-2.3
		c0.2,1.2,0.1,1.2-0.1,2.2c-0.2,0.9-0.1,2.6,1.1,2.3c1.3-0.3,0.4-1.6,0.7-2.9c0.3-1.3,1.1-2.5,1.1-2.5s0.4,0.9,0.4,2.5
		c0,1.6,0.3,2,1.2,2c0.9,0,0.8-0.1,1.1-2.2c0.2-2.2-0.4-2.8-0.4-2.8s0.3-0.1,0.9,1c0.7,1,1,3,1,3s0.3,0.3,1,0.1
		C28.8,26.5,28.2,24.2,28,23.5"/>
	<path style="fill:#AA182C;" d="M27,27.1c-0.8,0.2-1-0.1-1-0.1s-0.3-2-1-3c-0.7-1-0.9-1-0.9-1s0.6,0.7,0.4,2.8
		c-0.3,2.1-0.2,2.2-1.1,2.2c-0.9,0-1.2-0.4-1.2-2c0-1.6-0.4-2.5-0.4-2.5s-0.8,1.2-1.1,2.5c-0.3,1.3,0.6,2.7-0.7,2.9
		c-1.3,0.3-1.3-1.4-1.1-2.3c0.2-0.9,0.3-0.9,0.1-2.2c0,0-0.9,0.9-1.3,2.3c-0.4,1.3,0.2,2.5-1.2,3c-1.4,0.4-1.8-0.9-1.7-1.8
		c0.1-0.9,1.4-2.3,1.5-4.5c0.1-2.1-0.7-2.5-1.3-2.9c0,0,0.6,1.3,0.1,2.5c-0.5,1.1-1.6,2.2-2.2,3.6c-0.6,1.4,0.3,3-1.1,3
		c-1.4,0-1.6-0.6-1.4-2.6c0.2-2,0.5-2.5,0.5-2.5s-0.7,0.8-1.5,2.7c-0.8,1.8-0.6,2-1.7,1.4c-1.1-0.6-0.6-2.3-0.3-3.9
		c0.4-1.5,0.3-2.3,0.3-2.3S6,24.7,5.7,25.7c-0.5,1.6,0.2,1.9-0.4,2.5c-0.6,0.6-1.4,0.1-1.9-0.4C2,26.4,2.1,24.9,2.2,24
		c0.1-1,0.4-2.8,0.4-2.8s0.4,1.7,0.9,2.7c0.5,0.9,0.3,0.5,0.3,0.5s0-1.1,0.4-2.7c0.4-1.6,0.6-1.7,0.6-1.7S4.6,21.4,5.4,23
		c0,0-0.1-0.8,0.5-2.1c0.6-1.3,1-1,1.1-4.1c0.2-3.2-0.3-2.9,0.4-5.5c0,0,1.1,1.6,1.9,4c0.8,2.5,0.1,2.7,1.1,5.3c0,0-0.2-1.2,0.3-3.9
		c0.4-2.7,2.1-4.2,2.1-4.2s0.1,1.1,0.3,1.6c0,0-0.1-0.9,1-2.8c1-1.9,1.2-1.8,2-3.1c0,0-0.1,2.2,1.3,4.8c1.4,2.6,1.3,3,1.3,4.4
		c0,1.3-0.2,2.1-0.2,2.1s0.5-0.8,0.8-2l0.3-1.2c0,0,1.4,5.5,1.1,3.3c-0.1-0.5,0.6,2.3,0.6,3c0.3-0.2,1-0.8,0.9-2.2
		c0,0-0.3-0.9-0.1-2.8c0.2-1.9,0.8-1.3,1.1-3.8c0,0,0.7,0.6,0.9,3.1c0.2,2.5,0.7,2.4,1.1,3c0.8,1,0.9,1.5,0.8,3
		c-0.1,1.5,0.1,1,0.1,1s0.1-0.7,0.6-1.7c0.6-1,0.8-1.3,0.8-1.3s0.2,1.8,0.4,2.6C28.2,24.2,28.8,26.5,27,27.1 M30,22.6
		c-0.2-1.7-1.3-2.8-1.4-4.2c-0.1-1.3,0.7-2.5,0.7-2.5s-0.6-0.4-1.3,1.1c-0.7,1.5-0.8,1.8-0.8,1.8c0-0.1-1.4-2.4-1.9-2.7
		c-0.5-0.4-0.4-0.4-0.6-0.8c-0.1-0.4,0-3.7-0.2-5.9C24.2,7.3,22.1,6,22.1,6s1,0.8,0.4,2.5c-0.6,1.6-1.7,3-1.7,3
		C20,12.8,20,13.8,20,13.8s-1.4-0.6-2-3.4C17.4,7.7,18.3,6.5,18,4c-0.6-2.9-2.2-4-2.2-4c0.6,1.1,0.4,1.3,0.4,2.2
		c0,0.9-0.1,1.7-1.8,3.9c-1.8,2.2-2.5,2.6-3,4c-0.6,1.5-0.8,2.9-0.8,2.9c-0.3-0.5-1.7-2.2-2.7-5.2c-0.5-1.5,0.1-3,0.1-3
		c-1,0.8-1.8,2-2.1,3.8c-0.3,1.8-0.4,5.6-0.8,7.3c-0.4,1.6-1.7,3.2-1.7,3.2s-0.2-0.6-0.4-1.8C2.7,16,1.6,15,1.6,15
		c0.8,3-0.4,4.7-1,6.2c-0.6,1.5-1.9,4.9,4.3,8.2c6.7,3.5,17.3,1.9,21.6-0.4C30.9,26.6,30,22.6,30,22.6"/>
	<path style="fill:#00749B;" d="M77.9,89.9l-0.8-2.3h-4.5l-0.8,2.3h-1.2l3.8-10.3h0.9l3.8,10.3H77.9z M74.9,81.2L73,86.6h3.8
		L74.9,81.2z"/>
	<polygon style="fill:#00749B;" points="90.9,89.9 90,89.9 88.1,84.4 86.2,89.9 85.3,89.9 83,82.8 84.2,82.8 85.8,88.5 87.6,82.8 
		88.5,82.8 90.4,88.5 92,82.8 93.2,82.8 	"/>
	<path style="fill:#00749B;" d="M99.2,89.2c-0.5,0.5-1.2,0.8-2,0.8c-0.9,0-1.5-0.3-2-0.8c-0.7-0.7-0.9-1.7-0.9-2.8
		c0-1.1,0.1-2.1,0.9-2.8c0.5-0.5,1.2-0.8,2-0.8c0.9,0,1.5,0.3,2,0.8c0.7,0.7,0.9,1.7,0.9,2.8C100,87.5,99.9,88.5,99.2,89.2
		 M98.4,84.2c-0.3-0.3-0.8-0.5-1.3-0.5c-0.5,0-1,0.2-1.3,0.5c-0.5,0.5-0.6,1.4-0.6,2.2c0,0.8,0.1,1.7,0.6,2.2
		c0.3,0.3,0.8,0.5,1.3,0.5c0.5,0,1-0.2,1.3-0.5C99,88,99,87.2,99,86.4C99,85.6,99,84.7,98.4,84.2"/>
	<path style="fill:#00749B;" d="M106.2,84.2c-0.4-0.4-0.7-0.5-1.2-0.5c-1,0-1.7,0.8-1.7,1.9v4.4h-1v-7.1h1v0.9c0.4-0.6,1.2-1,2-1
		c0.7,0,1.2,0.2,1.7,0.7L106.2,84.2z"/>
	<path style="fill:#00749B;" d="M110.1,89.9c-1.2,0-1.8-0.8-1.8-1.9v-8.4h1V88c0,0.7,0.2,1,1,1h0.6v0.9H110.1z"/>
	<path style="fill:#00749B;" d="M116.9,89.9v-0.9c-0.6,0.8-1.2,0.9-2,0.9c-0.7,0-1.4-0.2-1.7-0.6c-0.7-0.7-0.9-1.9-0.9-3
		c0-1.1,0.1-2.3,0.9-3c0.4-0.4,1-0.6,1.7-0.6c0.8,0,1.4,0.2,2,0.9v-4h1v10.3H116.9z M115.1,83.6c-1.5,0-1.8,1.3-1.8,2.7
		c0,1.4,0.2,2.7,1.8,2.7c1.5,0,1.8-1.3,1.8-2.7C116.9,85,116.6,83.6,115.1,83.6"/>
	<path style="fill:#00749B;" d="M128.7,89.2c-0.5,0.5-1.2,0.8-2,0.8c-0.9,0-1.5-0.3-2-0.8c-0.7-0.7-0.9-1.7-0.9-2.8
		c0-1.1,0.1-2.1,0.9-2.8c0.5-0.5,1.2-0.8,2-0.8c0.9,0,1.5,0.3,2,0.8c0.7,0.7,0.9,1.7,0.9,2.8C129.5,87.5,129.4,88.5,128.7,89.2
		 M127.9,84.2c-0.3-0.3-0.8-0.5-1.3-0.5c-0.5,0-1,0.2-1.3,0.5c-0.5,0.5-0.6,1.4-0.6,2.2c0,0.8,0.1,1.7,0.6,2.2
		c0.3,0.3,0.8,0.5,1.3,0.5c0.5,0,1-0.2,1.3-0.5c0.5-0.5,0.6-1.4,0.6-2.2C128.5,85.6,128.4,84.7,127.9,84.2"/>
	<path style="fill:#00749B;" d="M133,83.6v6.3h-1v-6.3h-0.9v-0.8h0.9v-1.3c0-1.1,0.6-1.9,1.8-1.9h0.8v0.9H134c-0.7,0-1,0.4-1,1v1.3
		h1.5v0.8H133z"/>
	<path style="fill:#00749B;" d="M141.1,83.6v6.3h-1v-6.3h-0.9v-0.8h0.9v-1.3c0-1.1,0.6-1.9,1.8-1.9h0.8v0.9h-0.6c-0.7,0-1,0.4-1,1
		v1.3h1.5v0.8H141.1z"/>
	<path style="fill:#00749B;" d="M148.4,84.2c-0.4-0.4-0.7-0.5-1.2-0.5c-1,0-1.7,0.8-1.7,1.9v4.4h-1v-7.1h1v0.9c0.4-0.6,1.2-1,2-1
		c0.7,0,1.2,0.2,1.7,0.7L148.4,84.2z"/>
	<path style="fill:#00749B;" d="M151.1,86.6c0,1.6,0.7,2.5,2.1,2.5c0.8,0,1.3-0.2,1.9-0.8l0.7,0.6c-0.7,0.7-1.4,1.1-2.6,1.1
		c-1.9,0-3.1-1.1-3.1-3.6c0-2.3,1.1-3.6,2.9-3.6c1.8,0,2.9,1.3,2.9,3.4v0.5H151.1z M154.7,84.7c-0.3-0.6-0.9-1.1-1.7-1.1
		c-0.8,0-1.4,0.4-1.7,1.1c-0.2,0.4-0.2,0.6-0.2,1.2h3.8C154.9,85.3,154.8,85.1,154.7,84.7"/>
	<path style="fill:#00749B;" d="M160.4,90c-1.2,0-2.1-0.3-2.9-1l0.7-0.7c0.6,0.6,1.3,0.8,2.2,0.8c1.2,0,1.9-0.4,1.9-1.3
		c0-0.6-0.4-1-1.2-1l-1.2-0.1c-1.4-0.1-2.1-0.7-2.1-1.9c0-1.3,1.1-2.1,2.6-2.1c1,0,1.9,0.2,2.6,0.8l-0.7,0.7
		c-0.5-0.4-1.2-0.6-1.9-0.6c-1,0-1.6,0.4-1.6,1.2c0,0.6,0.3,1,1.2,1l1.1,0.1c1.2,0.1,2.1,0.6,2.1,1.9C163.3,89.2,162.1,90,160.4,90"
		/>
	<path style="fill:#00749B;" d="M169.8,89.9v-4.4c0-1.2-0.7-1.9-1.7-1.9c-1.1,0-1.8,0.6-1.8,1.9v4.4h-1V79.6h1v4
		c0.5-0.6,1.2-0.9,2-0.9c1.6,0,2.6,1,2.6,2.6v4.6H169.8z"/>
	<path style="fill:#00749B;" d="M177.9,89.9v-4.4c0-1.3-0.7-1.9-1.7-1.9c-1.1,0-1.8,0.6-1.8,1.9v4.4h-1v-7.1h1v0.8
		c0.5-0.6,1.2-0.9,2-0.9c0.8,0,1.4,0.2,1.8,0.7c0.5,0.5,0.7,1.2,0.7,2v4.5H177.9z"/>
	<path style="fill:#00749B;" d="M182.2,86.6c0,1.6,0.7,2.5,2.1,2.5c0.8,0,1.3-0.2,1.9-0.8l0.7,0.6c-0.7,0.7-1.4,1.1-2.6,1.1
		c-1.9,0-3.1-1.1-3.1-3.6c0-2.3,1.1-3.6,2.9-3.6c1.8,0,2.9,1.3,2.9,3.4v0.5H182.2z M185.7,84.7c-0.3-0.6-0.9-1.1-1.7-1.1
		c-0.8,0-1.4,0.4-1.7,1.1c-0.2,0.4-0.2,0.6-0.2,1.2h3.8C185.9,85.3,185.9,85.1,185.7,84.7"/>
	<path style="fill:#00749B;" d="M191.4,90c-1.2,0-2.1-0.3-2.9-1l0.7-0.7c0.6,0.6,1.3,0.8,2.2,0.8c1.2,0,1.9-0.4,1.9-1.3
		c0-0.6-0.4-1-1.2-1l-1.2-0.1c-1.4-0.1-2.1-0.7-2.1-1.9c0-1.3,1.1-2.1,2.6-2.1c1,0,1.9,0.2,2.6,0.8l-0.7,0.7
		c-0.5-0.4-1.2-0.6-1.9-0.6c-1,0-1.6,0.4-1.6,1.2c0,0.6,0.3,1,1.2,1l1.1,0.1c1.2,0.1,2.1,0.6,2.1,1.9C194.3,89.2,193.1,90,191.4,90"
		/>
	<path style="fill:#00749B;" d="M198.6,90c-1.2,0-2.1-0.3-2.9-1l0.7-0.7c0.6,0.6,1.3,0.8,2.2,0.8c1.2,0,1.9-0.4,1.9-1.3
		c0-0.6-0.4-1-1.2-1l-1.2-0.1c-1.4-0.1-2.1-0.7-2.1-1.9c0-1.3,1.1-2.1,2.6-2.1c1,0,1.9,0.2,2.6,0.8l-0.7,0.7
		c-0.5-0.4-1.2-0.6-1.9-0.6c-1,0-1.6,0.4-1.6,1.2c0,0.6,0.3,1,1.2,1l1.1,0.1c1.2,0.1,2.1,0.6,2.1,1.9C201.4,89.2,200.3,90,198.6,90"
		/>
</g>
</svg>
